<?xml version="1.0" encoding="UTF-8"?>
<svg id="Calque_1" xmlns="http://www.w3.org/2000/svg" width="1001.71" height="1002.87" viewBox="0 0 1001.71 1002.87">
  <defs>
    <style>
      .cls-1 {
        fill: #a9a9a9;
      }

      .cls-1, .cls-2 {
        stroke: #fff;
        stroke-width: 2px;
      }

      .cls-1, .cls-2, .cls-3 {
        stroke-miterlimit: 10;
      }

      .cls-2 {
        fill: maroon;
      }

      .cls-4 {
        fill: none;
      }

      .cls-3 {
        stroke: #000;
      }
    </style>
  </defs>
  <rect class="cls-3" x=".5" y=".5" width="1000.71" height="1001.87" rx="71.47" ry="71.47"/>
  <g>
    <path class="cls-2" d="M768.9,405.99l-214.44.75c-.47,0-.91.25-1.14.66l-56.05,97.8-50.52,88.15c-.23.41-.23.91,0,1.32l107.87,185.21c.24.41.67.66,1.14.66l214.44-.75c.47,0,.91-.25,1.14-.66l106.57-185.95c.23-.41.23-.91,0-1.32l-107.87-185.21c-.24-.41-.67-.66-1.14-.66Z"/>
    <path class="cls-1" d="M123.07,409.5c35.34,61.1,70.67,122.2,106.01,183.3.46.79,1.59.79,2.05,0l105.43-183.81c.45-.79-.12-1.77-1.03-1.77-70.48.17-140.96.34-211.43.51-.91,0-1.47.99-1.02,1.77Z"/>
    <path class="cls-1" d="M338.7,408.77c35.34,61.1,70.67,122.2,106.01,183.3.46.79,1.59.79,2.05,0l105.43-183.81c.45-.79-.12-1.77-1.03-1.77-70.48.17-140.96.34-211.43.51-.91,0-1.47.99-1.02,1.77Z"/>
    <path class="cls-1" d="M338.5,405.3c35.25-61.15,70.49-122.3,105.74-183.45.45-.79-.12-1.77-1.03-1.77l-211.9.6c-.91,0-1.47.99-1.02,1.77,35.39,60.95,70.78,121.9,106.16,182.85.46.78,1.59.78,2.04,0Z"/>
    <path class="cls-1" d="M232.54,594.11c70.58-.05,141.16-.1,211.74-.16.91,0,1.48-.99,1.02-1.77l-106.47-183.21c-.46-.79-1.59-.78-2.04,0-35.09,61.12-70.18,122.24-105.27,183.36-.45.79.12,1.77,1.02,1.77Z"/>
    <path class="cls-1" d="M339.73,407c70.58-.05,141.16-.1,211.74-.16.91,0,1.48-.99,1.02-1.77l-106.47-183.21c-.46-.79-1.59-.78-2.04,0-35.09,61.12-70.18,122.24-105.27,183.36-.45.79.12,1.77,1.02,1.77Z"/>
    <path class="cls-1" d="M336.62,405.44c-35.34-61.1-70.67-122.2-106.01-183.3-.46-.79-1.59-.79-2.05,0l-105.43,183.81c-.45.79.12,1.77,1.03,1.77,70.48-.17,140.96-.34,211.43-.52.91,0,1.47-.99,1.02-1.77Z"/>
    <path class="cls-1" d="M231.42,596.31c35.34,61.1,70.67,122.2,106.01,183.3.46.79,1.59.79,2.05,0l105.43-183.81c.45-.79-.12-1.77-1.03-1.77-70.48.17-140.96.34-211.43.51-.91,0-1.47.99-1.02,1.77Z"/>
    <path class="cls-1" d="M340.89,780.92c70.58-.05,141.16-.1,211.74-.16.91,0,1.48-.99,1.02-1.77l-106.47-183.21c-.46-.79-1.59-.78-2.04,0-35.09,61.12-70.18,122.24-105.27,183.36-.45.79.12,1.77,1.02,1.77Z"/>
    <path class="cls-2" d="M356.3,373.38l-37.61.13c-.47,0-.91.25-1.14.66l-9.85,17.18-8.84,15.43c-.23.41-.23.91,0,1.32l18.92,32.48c.24.41.67.66,1.14.66l37.61-.13c.47,0,.91-.25,1.14-.66l18.69-32.61c.23-.41.23-.91,0-1.32l-18.92-32.48c-.24-.41-.67-.66-1.14-.66Z"/>
  </g>
  <rect class="cls-4" x=".5" y=".5" width="1000" height="1000"/>
</svg>